<?xml version="1.0" standalone="no"?>
<!DOCTYPE svg PUBLIC "-//W3C//DTD SVG 1.1//EN" "http://www.w3.org/Graphics/SVG/1.1/DTD/svg11.dtd" >
<svg xmlns="http://www.w3.org/2000/svg">
<metadata>
This is a custom SVG webfont generated by Font Squirrel.
Copyright   : Copyright 19902001 Bitstream Inc All rights reserved
</metadata>
<defs>
<font id="webfontPFvjvtdZ" horiz-adv-x="1583" >
<font-face units-per-em="2048" ascent="1556" descent="-492" />
<missing-glyph horiz-adv-x="793" />
<glyph unicode=" "  horiz-adv-x="793" />
<glyph unicode="&#x09;" horiz-adv-x="793" />
<glyph unicode="&#xa0;" horiz-adv-x="793" />
<glyph unicode="!" horiz-adv-x="786" d="M463 293h35q29 0 40 -14t11 -56v-153q0 -43 -12 -56.5t-74 -13.5h-180q-29 0 -40.5 14t-11.5 56v153q0 43 12.5 56.5t73.5 13.5h146zM309 430l-76 627h316l-76 -627h-164z" />
<glyph unicode="&#x22;" horiz-adv-x="614" d="M524 1436v-555h-139v555h139zM229 1436v-555h-139v555h139z" />
<glyph unicode="#" horiz-adv-x="1575" d="M969 858h-260l-93 -264h261zM924 1458l-162 -454h256l164 454h164l-160 -454h301l-51 -146h-303l-93 -262h322l-51 -147h-322l-162 -453h-165l161 453h-258l-162 -453h-165l159 453h-309l53 147h310l92 262h-330l51 146h332l162 454h166z" />
<glyph unicode="$" d="M891 160h305v280h-305v-280zM721 625v280h-295v-280h295zM1171 905h-280v-280h229q155 0 209.5 -53.5t54.5 -196.5v-125q0 -144 -54.5 -197t-209.5 -53h-229v-266h-170v266h-260q-148 0 -205 50t-57 171v45l204 35v-141h318v280h-219q-154 0 -208 53t-54 197v117 q0 144 54 197t208 53h219v209h170v-209h211q143 0 202.5 -47.5t59.5 -159.5v-47l-193 -43v145z" />
<glyph unicode="%" horiz-adv-x="1636" d="M1329 1090l-891 -1123h-133l891 1123h133zM915 283q0 132 91 222.5t223 90.5t223.5 -91.5t91.5 -221.5q0 -128 -94 -222t-221 -94q-128 0 -221 93.5t-93 222.5zM1055 281q0 -72 51 -123.5t123 -51.5q73 0 124.5 51t51.5 124q0 72 -52 124t-124 52q-71 0 -122.5 -52.5 t-51.5 -123.5zM229 774q0 -71 51.5 -122.5t122.5 -51.5q74 0 125.5 51t51.5 123t-52 124t-125 52q-70 0 -122 -52.5t-52 -123.5zM90 778q0 132 91.5 222t224.5 90q131 0 222 -90.5t91 -221.5q0 -128 -93.5 -222.5t-219.5 -94.5q-128 0 -222 94t-94 223z" />
<glyph unicode="&#x26;" horiz-adv-x="1688" d="M391 184h490l98 84l-317 264l-271 -167v-181zM449 0q-155 0 -210 53t-55 197v69q0 69 23.5 108t107.5 89l215 129q-47 40 -68.5 77.5t-21.5 82.5v59q0 105 58 149t204 44h213q153 0 208 -46t55 -167v-64l-191 -32v141h-346v-76l498 -414l245 205l140 -121l-244 -202 l334 -281h-322l-174 147l-94 -84q-42 -36 -79.5 -49.5t-119.5 -13.5h-376z" />
<glyph unicode="'" horiz-adv-x="317" d="M229 1436v-555h-139v555h139z" />
<glyph unicode="(" horiz-adv-x="678" d="M346 1098h219q-100 -150 -149 -291t-49 -279q0 -137 49 -278t149 -291h-219q-88 137 -132 279.5t-44 289.5q0 148 44 290.5t132 279.5z" />
<glyph unicode=")" horiz-adv-x="678" d="M332 1098q89 -138 133.5 -281t44.5 -289t-44.5 -288.5t-133.5 -280.5h-219q100 150 149 291t49 278q0 138 -49 279t-149 291h219z" />
<glyph unicode="*" horiz-adv-x="1024" d="M512 657l-135 -245l-121 88l193 205l-273 53l45 139l252 -121l-29 281h136l-31 -281l252 121l47 -139l-275 -53l193 -205l-119 -88z" />
<glyph unicode="+" horiz-adv-x="1706" d="M924 1221v-541h528v-139h-528v-541h-142v541h-528v139h528v541h142z" />
<glyph unicode="," horiz-adv-x="678" d="M412 317h34q28 0 39 -15.5t11 -59.5v-211l-203 -303h-121l174 311h-117q-27 0 -38 16t-11 60v127q0 48 11.5 61.5t72.5 13.5h148z" />
<glyph unicode="-" horiz-adv-x="676" d="M98 440v211h477v-211h-477z" />
<glyph unicode="." horiz-adv-x="678" d="M412 317h37q27 0 38 -15.5t11 -59.5v-166q0 -48 -12 -62t-74 -14h-183q-27 0 -38 16t-11 60v166q0 47 12 61t74 14h146z" />
<glyph unicode="/" horiz-adv-x="569" d="M-49 -33l532 1123h135l-536 -1123h-131z" />
<glyph unicode="0" d="M414 190h755v687h-755v-687zM193 807q0 145 50.5 197.5t190.5 52.5h715q141 0 191.5 -52.5t50.5 -197.5v-557q0 -145 -50.5 -197.5t-191.5 -52.5h-715q-140 0 -190.5 52.5t-50.5 197.5v557z" />
<glyph unicode="1" d="M725 0v856h-225v141l448 68v-1065h-223z" />
<glyph unicode="2" d="M287 850q0 119 49 163t192 44h543q143 0 192.5 -44t49.5 -163v-68q0 -77 -23.5 -118t-113.5 -97l-621 -377h614v156l195 -55v-84q0 -119 -49.5 -163t-192.5 -44h-889v96q0 70 29.5 108t104.5 85l731 450v138h-602v-218l-209 54v137z" />
<glyph unicode="3" d="M467 0q-143 0 -192.5 44t-49.5 163v86l217 45v-148h570q61 0 81.5 19t20.5 76v77q0 58 -21 77.5t-81 19.5h-357v172h318q60 0 80 19t20 77v53q0 59 -20 78t-80 19h-522v-132l-209 39v66q0 119 49 163t192 44h572q143 0 192 -44t49 -163v-96q0 -93 -45 -138t-159 -63 q127 -12 186 -64t59 -151v-111q0 -130 -56 -178.5t-200 -48.5h-614z" />
<glyph unicode="4" d="M967 -12v245h-801v177l792 659h232v-659h256v-177h-256v-245h-223zM967 410v473l-578 -473h578z" />
<glyph unicode="5" d="M266 471l60 586h913l-18 -180h-738l-24 -205q136 14 239.5 20t188.5 6q262 0 393 -89.5t131 -268.5q0 -186 -137.5 -270t-444.5 -84q-161 0 -290.5 11t-219.5 32l-53 204q155 -28 292.5 -41.5t264.5 -13.5q199 0 280 39.5t81 132.5q0 88 -79 126t-267 38q-120 0 -264 -11 t-308 -32z" />
<glyph unicode="6" d="M457 477q-2 -13 -3 -26t-1 -35q0 -153 40.5 -189.5t178.5 -36.5h295q109 0 150.5 27t41.5 100v58q0 74 -46.5 100.5t-186.5 26.5q-113 0 -230.5 -6.5t-238.5 -18.5zM471 637q121 18 237.5 27.5t229.5 9.5q256 0 351 -59.5t95 -213.5v-143q0 -132 -88 -195t-274 -63h-447 q-200 0 -274 70t-74 256v139q0 295 204.5 456.5t576.5 161.5q14 0 30.5 -0.5t44.5 -3.5l146 -170h-68q-337 0 -487 -61.5t-203 -210.5z" />
<glyph unicode="7" d="M569 -18l570 895h-699v-228l-223 39v369h1174v-170l-553 -905h-269z" />
<glyph unicode="8" d="M1120 1057q143 0 192.5 -44t49.5 -163v-96q0 -92 -45 -138t-158 -67q117 -13 172 -64t55 -147v-111q0 -129 -56.5 -178t-201.5 -49h-675q-144 0 -200 48.5t-56 178.5v111q0 95 55 146.5t170 64.5q-112 22 -157.5 68t-45.5 137v96q0 119 49.5 163t192.5 44h659zM1038 877 h-493q-61 0 -82 -19.5t-21 -77.5v-53q0 -57 21 -76.5t82 -19.5h493q60 0 80.5 19t20.5 77v53q0 59 -20.5 78t-80.5 19zM1061 459h-541q-60 0 -80 -19t-20 -78v-77q0 -58 19 -76.5t81 -18.5h541q61 0 80.5 18.5t19.5 76.5v77q0 59 -20 78t-80 19z" />
<glyph unicode="9" d="M1133 420q-114 -18 -231 -26.5t-236 -8.5q-256 0 -351.5 59.5t-95.5 212.5v142q0 132 87.5 195t273.5 63h446q200 0 274 -70t74 -256v-139q0 -295 -204 -456t-576 -161q-31 0 -46.5 0.5t-29.5 2.5l-145 169h67q338 0 488.5 62t204.5 211zM1145 582q3 18 4.5 34.5 t1.5 28.5q0 156 -41 194t-180 38h-293q-111 0 -153 -28t-42 -104v-59q0 -77 47 -104t189 -27q100 0 218.5 6.5t248.5 20.5z" />
<glyph unicode=":" horiz-adv-x="678" d="M412 868h37q27 0 38 -15.5t11 -59.5v-166q0 -48 -12 -62t-74 -14h-183q-27 0 -38 16t-11 60v166q0 47 12 61t74 14h146zM412 317h37q27 0 38 -15.5t11 -59.5v-166q0 -48 -12 -62t-74 -14h-183q-27 0 -38 16t-11 60v166q0 47 12 61t74 14h146z" />
<glyph unicode=";" horiz-adv-x="678" d="M412 868h34q28 0 39 -15.5t11 -59.5v-166q0 -49 -11.5 -62.5t-72.5 -13.5h-183q-27 0 -38 16t-11 60v166q0 48 11.5 61.5t72.5 13.5h148zM412 317h34q28 0 39 -15.5t11 -59.5v-211l-203 -303h-121l174 311h-117q-27 0 -38 16t-11 60v127q0 48 11.5 61.5t72.5 13.5h148z " />
<glyph unicode="&#x3c;" horiz-adv-x="1706" d="M1442 1006l-969 -396l969 -393v-154l-1178 484v129l1178 483v-153z" />
<glyph unicode="=" horiz-adv-x="1706" d="M1452 481v-139h-1198v139h1198zM1452 879v-140h-1198v140h1198z" />
<glyph unicode="&#x3e;" horiz-adv-x="1706" d="M1442 676v-129l-1178 -484v154l971 393l-971 396v153z" />
<glyph unicode="?" horiz-adv-x="1356" d="M717 293h37q27 0 37 -13.5t10 -56.5v-153q0 -44 -12 -57t-72 -13h-180q-29 0 -40.5 14t-11.5 56v153q0 44 12 57t72 13h148zM541 428v147l354 216v92h-471v-133l-207 32v58q0 109 55.5 163t165.5 54h418q129 0 191.5 -48.5t62.5 -148.5v-168l-358 -209v-55h-211z" />
<glyph unicode="@" horiz-adv-x="2048" d="M1284 854l57 115h132l-146 -576q-4 -16 -6 -31t-2 -28q0 -46 25.5 -70t74.5 -24q48 0 102.5 26.5t106.5 75.5q80 76 125 186.5t45 233.5q0 259 -190.5 420t-499.5 161q-133 0 -246 -28t-211 -86q-191 -114 -296 -299.5t-105 -409.5q0 -177 61.5 -308t192.5 -230 q100 -77 236.5 -118.5t287.5 -41.5q169 0 328.5 49t292.5 141l55 -82q-148 -111 -314.5 -167t-349.5 -56q-190 0 -348 47t-280 140q-154 118 -230 274t-76 354q0 165 52 313t151 269q146 178 351.5 270t455.5 92q163 0 310 -45t253 -127q130 -100 197.5 -231t67.5 -283 q0 -175 -63.5 -315t-184.5 -236q-68 -54 -149.5 -83t-166.5 -29q-99 0 -149.5 39.5t-50.5 117.5v19q-55 -89 -129 -131.5t-172 -42.5q-153 0 -233.5 85t-80.5 247q0 235 138 394t339 159q85 0 145.5 -37.5t96.5 -112.5zM1190 475l59 236q-17 88 -68.5 136t-129.5 48 q-138 0 -232 -130t-94 -319q0 -105 48.5 -162t137.5 -57q97 0 174.5 69t104.5 179z" />
<glyph unicode="A" horiz-adv-x="1579" d="M541 422h463l-228 430zM68 0l598 1057h237l606 -1057h-276l-127 231h-670l-123 -231h-245z" />
<glyph unicode="B" horiz-adv-x="1626" d="M1073 885h-561v-252h561q64 0 88.5 17t24.5 59v100q0 41 -24.5 58.5t-88.5 17.5zM1073 459h-561v-269h561q70 0 94.5 21t24.5 74v80q0 53 -24.5 73.5t-94.5 20.5zM270 0v1057h906q125 0 181 -49t56 -156v-129q0 -76 -47 -121.5t-135 -56.5q91 -12 140.5 -65t49.5 -138 v-135q0 -105 -77 -156t-234 -51h-840z" />
<glyph unicode="C" horiz-adv-x="1640" d="M1157 868h-663v-669h663v227l246 -51v-125q0 -145 -54.5 -197.5t-207.5 -52.5h-631q-154 0 -208 52.5t-54 197.5v557q0 144 54 197t208 53h631q153 0 207.5 -53t54.5 -197v-100l-246 -39v200z" />
<glyph unicode="D" horiz-adv-x="1735" d="M516 199h318q254 0 360 79t106 261q0 162 -88 245.5t-260 83.5h-436v-669zM270 0v1057h680q291 0 447.5 -136t156.5 -386q0 -148 -61 -266.5t-172 -186.5q-69 -43 -171.5 -62.5t-262.5 -19.5h-617z" />
<glyph unicode="E" horiz-adv-x="1546" d="M270 0v1057h1082v-180h-836v-236h488v-180h-488v-262h846v-199h-1092z" />
<glyph unicode="F" horiz-adv-x="1374" d="M270 0v1057h1069v-185h-823v-278h445v-193h-445v-401h-246z" />
<glyph unicode="G" horiz-adv-x="1751" d="M1262 868h-768v-669h768v235h-402v180h641v-364q0 -145 -54 -197.5t-208 -52.5h-729q-154 0 -208 52.5t-54 197.5v557q0 144 54 197t208 53h729q152 0 207 -52t55 -188v-24l-239 -43v118z" />
<glyph unicode="H" horiz-adv-x="1802" d="M270 0v1057h246v-410h768v410h248v-1057h-248v455h-768v-455h-246z" />
<glyph unicode="I" horiz-adv-x="786" d="M270 0v1057h246v-1057h-246z" />
<glyph unicode="J" horiz-adv-x="1366" d="M424 0q-154 0 -208 52.5t-54 197.5v219l248 47v-317h483v858h246v-807q0 -145 -54.5 -197.5t-207.5 -52.5h-453z" />
<glyph unicode="K" horiz-adv-x="1626" d="M270 0v1057h248v-441l586 441h356l-700 -498l786 -559h-395l-633 465v-465h-248z" />
<glyph unicode="L" horiz-adv-x="1399" d="M270 0v1057h246v-858h793v-199h-1039z" />
<glyph unicode="M" horiz-adv-x="1896" d="M268 0v1057h199l498 -639l487 639h197v-1057h-228v653q0 19 2.5 48t6.5 65q-20 -41 -35 -67.5t-27 -43.5l-397 -528h-49l-398 530q-22 30 -37.5 56.5t-25.5 51.5q3 -33 4.5 -60t1.5 -52v-653h-199z" />
<glyph unicode="N" horiz-adv-x="1780" d="M268 0v1057h168l744 -623q38 -31 67 -58.5t53 -56.5q-6 89 -8 126t-2 57v555h221v-1057h-168l-776 653l-49 45q-21 20 -39 41q5 -49 7.5 -92.5t2.5 -75.5v-571h-221z" />
<glyph unicode="O" horiz-adv-x="1798" d="M248 807q0 144 54 197t208 53h778q154 0 208 -53t54 -197v-557q0 -145 -54 -197.5t-208 -52.5h-778q-154 0 -208 52.5t-54 197.5v557zM494 199h811v669h-811v-669z" />
<glyph unicode="P" horiz-adv-x="1522" d="M1065 874h-553v-280h553q64 0 87.5 18.5t23.5 65.5v113q0 46 -23.5 64.5t-87.5 18.5zM270 0v1057h904q126 0 182.5 -48.5t56.5 -156.5v-236q0 -107 -56.5 -155.5t-182.5 -48.5h-662v-412h-242z" />
<glyph unicode="Q" horiz-adv-x="1798" d="M248 807q0 144 54 197t208 53h778q154 0 208 -53t54 -197v-557q0 -145 -54 -197.5t-208 -52.5h-114l133 -272h-244l-119 272h-434q-154 0 -208 52.5t-54 197.5v557zM494 199h362l-98 229l178 72l143 -301h226v669h-811v-669z" />
<glyph unicode="R" horiz-adv-x="1642" d="M1065 874h-553v-294h553q64 0 87.5 18.5t23.5 65.5v127q0 46 -23.5 64.5t-87.5 18.5zM270 0v1057h904q126 0 182.5 -48.5t56.5 -156.5v-248q0 -107 -56.5 -156t-182.5 -49h-138l488 -399h-353l-426 399h-233v-399h-242z" />
<glyph unicode="S" horiz-adv-x="1657" d="M1186 872h-692v-227h659q155 0 209.5 -53t54.5 -197v-145q0 -144 -54.5 -197t-209.5 -53h-653q-155 0 -209.5 53t-54.5 197v29l217 45v-125h747v241h-659q-154 0 -208 53t-54 197v117q0 144 54 197t208 53h600q149 0 205.5 -51t56.5 -181v-22l-217 -51v120z" />
<glyph unicode="T" horiz-adv-x="1280" d="M762 868v-868h-246v868h-485v189h1218v-189h-487z" />
<glyph unicode="U" horiz-adv-x="1733" d="M516 1057v-858h701v858h245v-807q0 -145 -54 -197.5t-208 -52.5h-668q-153 0 -207.5 52.5t-54.5 197.5v807h246z" />
<glyph unicode="V" horiz-adv-x="1395" d="M627 0l-611 1057h281l428 -764l408 764h245l-581 -1057h-170z" />
<glyph unicode="W" horiz-adv-x="1896" d="M487 0l-407 1057h254l268 -709l281 709h172l286 -709l256 709h220l-408 -1057h-166l-291 731l-295 -731h-170z" />
<glyph unicode="X" horiz-adv-x="1470" d="M109 0l501 543l-510 514h326l338 -359l321 359h283l-461 -486l570 -571h-334l-387 410l-357 -410h-290z" />
<glyph unicode="Y" horiz-adv-x="1376" d="M565 0v473l-549 584h328l363 -406l364 406h289l-547 -578v-479h-248z" />
<glyph unicode="Z" horiz-adv-x="1397" d="M125 0v115l739 753h-665v189h1061v-105l-750 -753h750v-199h-1135z" />
<glyph unicode="[" horiz-adv-x="678" d="M645 -33h-452v1123h452v-146h-256v-825h256v-152z" />
<glyph unicode="\" horiz-adv-x="569" d="M86 1090l532 -1123h-131l-536 1123h135z" />
<glyph unicode="]" horiz-adv-x="678" d="M33 -33v152h256v825h-256v146h452v-1123h-452z" />
<glyph unicode="^" horiz-adv-x="2048" d="M1116 1458l510 -557h-180l-422 420l-424 -420h-180l510 557h186z" />
<glyph unicode="_" horiz-adv-x="1024" d="M1024 -340v-143h-1024v143h1024z" />
<glyph unicode="`" horiz-adv-x="1024" d="M659 979h-131l-295 346h222z" />
<glyph unicode="a" horiz-adv-x="1323" d="M61 0l514 866h203l522 -866h-237l-109 190h-573l-109 -190h-211zM471 348h397l-202 361z" />
<glyph unicode="b" horiz-adv-x="1346" d="M193 0v866h778q109 0 157 -39.5t48 -128.5v-104q0 -59 -38 -97t-110 -51q73 -12 113.5 -55.5t40.5 -109.5v-111q0 -85 -67 -127.5t-202 -42.5h-720zM874 725h-473v-205h473q55 0 75 14t20 48v82q0 34 -19.5 47.5t-75.5 13.5zM874 377h-473v-221h473q60 0 81.5 17t21.5 60 v66q0 43 -21.5 60.5t-81.5 17.5z" />
<glyph unicode="c" horiz-adv-x="1319" d="M952 707h-569v-541h569v184l213 -43v-102q0 -118 -47 -161.5t-180 -43.5h-541q-131 0 -178 43t-47 162v457q0 118 46.5 161t178.5 43h541q134 0 180.5 -43t46.5 -161v-84l-213 -31v160z" />
<glyph unicode="d" horiz-adv-x="1421" d="M406 162h272q223 0 312 65t89 219q0 134 -74 199.5t-227 65.5h-372v-549zM193 0v866h583q251 0 385.5 -111.5t134.5 -318.5q0 -218 -142.5 -327t-430.5 -109h-530z" />
<glyph unicode="e" horiz-adv-x="1245" d="M193 0v866h929v-153h-716v-189h417v-149h-417v-213h727v-162h-940z" />
<glyph unicode="f" horiz-adv-x="1126" d="M193 0v866h919v-155h-706v-226h380v-161h-380v-324h-213z" />
<glyph unicode="g" horiz-adv-x="1417" d="M1042 707h-659v-541h659v184h-344v154h551v-299q0 -119 -46.5 -162t-178.5 -43h-627q-132 0 -178.5 43t-46.5 162v457q0 118 46.5 161t178.5 43h627q131 0 178 -42t47 -152v-23l-207 -35v93z" />
<glyph unicode="h" horiz-adv-x="1470" d="M193 0v866h213v-329h659v329h211v-866h-211v365h-659v-365h-213z" />
<glyph unicode="i" horiz-adv-x="596" d="M193 0v866h210v-866h-210z" />
<glyph unicode="j" horiz-adv-x="1147" d="M340 0q-133 0 -180 43.5t-47 161.5v180l213 39v-262h413v704h213v-661q0 -118 -47 -161.5t-180 -43.5h-385z" />
<glyph unicode="k" horiz-adv-x="1270" d="M193 0v866h213v-350l505 350h306l-599 -401l666 -465h-334l-544 391v-391h-213z" />
<glyph unicode="l" horiz-adv-x="1130" d="M193 0v866h213v-704h679v-162h-892z" />
<glyph unicode="m" horiz-adv-x="1571" d="M193 0v866h169l424 -514l422 514h170v-866h-196v596l-387 -492h-41l-392 478v-582h-169z" />
<glyph unicode="n" horiz-adv-x="1458" d="M193 0v866h145l735 -575v575h191v-866h-146l-733 584v-584h-192z" />
<glyph unicode="o" horiz-adv-x="1464" d="M383 166h698v541h-698v-541zM172 662q0 118 46 161t179 43h670q134 0 179.5 -43t45.5 -161v-457q0 -119 -46.5 -162t-178.5 -43h-670q-133 0 -179 43t-46 162v457z" />
<glyph unicode="p" horiz-adv-x="1286" d="M193 0v866h780q108 0 155.5 -39.5t47.5 -128.5v-192q0 -89 -48 -128.5t-155 -39.5h-572v-338h-208zM883 717h-482v-230h482q55 0 75.5 16t20.5 54v90q0 38 -20.5 54t-75.5 16z" />
<glyph unicode="q" horiz-adv-x="1464" d="M172 662q0 118 45.5 161t179.5 43h670q136 0 180.5 -43t44.5 -161v-455q0 -118 -46.5 -161.5t-178.5 -45.5h-102l114 -221h-209l-98 221h-375q-131 0 -178 43.5t-47 163.5v455zM383 166h317l-90 186l152 58l119 -244h200v541h-698v-541z" />
<glyph unicode="r" horiz-adv-x="1331" d="M883 717h-482v-240h482q55 0 75.5 16t20.5 54v100q0 38 -20.5 54t-75.5 16zM193 0v866h780q107 0 155 -39.5t48 -128.5v-204q0 -88 -48 -127t-155 -39h-119l412 -328h-303l-363 328h-199v-328h-208z" />
<glyph unicode="s" horiz-adv-x="1358" d="M993 711h-596v-183h564q133 0 179 -42.5t46 -161.5v-119q0 -119 -47 -162t-178 -43h-562q-134 0 -181.5 43t-47.5 162v24l188 35v-102h637v198h-561q-133 0 -180 43.5t-47 161.5v97q0 117 47 160.5t180 43.5h514q131 0 179.5 -41.5t48.5 -146.5v-21l-183 -39v93z" />
<glyph unicode="t" horiz-adv-x="1208" d="M709 711v-711h-211v711h-418v155h1048v-155h-419z" />
<glyph unicode="u" horiz-adv-x="1411" d="M403 866v-704h603v704h213v-661q0 -118 -47.5 -161.5t-180.5 -43.5h-573q-132 0 -178.5 43t-46.5 162v661h210z" />
<glyph unicode="v" horiz-adv-x="1294" d="M598 0l-524 866h239l367 -628l346 628h219l-502 -866h-145z" />
<glyph unicode="w" horiz-adv-x="1616" d="M426 0l-352 866h221l227 -604l244 604h145l242 -604l223 604h191l-348 -866h-144l-250 612l-254 -612h-145z" />
<glyph unicode="x" horiz-adv-x="1307" d="M104 0l428 444l-436 422h283l291 -280l274 280h244l-395 -397l487 -469h-289l-332 324l-305 -324h-250z" />
<glyph unicode="y" horiz-adv-x="1214" d="M520 0v389l-473 477h285l309 -323l313 323h248l-471 -473v-393h-211z" />
<glyph unicode="z" horiz-adv-x="1262" d="M143 0v94l635 617h-571v155h913v-86l-647 -620h647v-160h-977z" />
<glyph unicode="{" horiz-adv-x="1024" d="M866 1327h-41q-120 0 -161 -44.5t-41 -184.5v-242q0 -160 -44.5 -228t-156.5 -98q113 -28 157 -96t44 -229v-242q0 -141 41.5 -185t162.5 -44h39v-148h-43q-108 0 -169 11.5t-103 37.5q-55 34 -77.5 97t-22.5 211v245q0 149 -54.5 210t-185.5 61q-7 0 -21.5 -1t-21.5 -1 v149q8 0 23 -1t22 -1q130 0 184 60.5t54 207.5v246q0 148 22.5 210.5t77.5 96.5q45 28 108.5 40t169.5 12h37v-150z" />
<glyph unicode="|" horiz-adv-x="1024" d="M588 1565v-2048h-150v2048h150z" />
<glyph unicode="}" horiz-adv-x="1024" d="M575 1118v-246q0 -147 54 -207.5t184 -60.5q7 0 22 1t23 1v-149q-7 0 -22 1t-21 1q-132 0 -186 -60.5t-54 -210.5v-245q0 -148 -22.5 -211t-77.5 -97q-42 -26 -103 -37.5t-169 -11.5h-43v148h39q120 0 162 45t42 186v240q0 160 44.5 228t156.5 97q-112 30 -156.5 98 t-44.5 228v242q0 140 -42 184.5t-162 44.5h-39v150h37q107 0 171 -12.5t107 -39.5q55 -34 77.5 -96.5t22.5 -210.5z" />
<glyph unicode="~" horiz-adv-x="1706" d="M1530 614q-104 -72 -199 -106.5t-190 -34.5q-93 0 -256 58q-22 8 -34 12l-15 5q-176 60 -273 60q-84 0 -175 -37t-210 -120v155q106 72 202 108t185 36q62 0 127.5 -13.5t163.5 -48.5q16 -5 47 -17q159 -57 240 -57q88 0 179.5 37t207.5 119v-156z" />
<glyph d="M436 868v-149h471l-59 -131h-412v-117h361l-60 -133h-301v-148h756v236l223 -51v-125q0 -145 -54.5 -197.5t-207.5 -52.5h-676q-153 0 -207.5 52.5t-54.5 197.5v88h-178l59 133h119v117h-203l60 131h143v88q0 145 54.5 197.5t207.5 52.5h676q153 0 207.5 -52.5 t54.5 -197.5v-100l-223 -39v200h-756z" />
<glyph unicode="&#x20ac;" d="M436 868v-149h471l-59 -131h-412v-117h361l-60 -133h-301v-148h756v236l223 -51v-125q0 -145 -54.5 -197.5t-207.5 -52.5h-676q-153 0 -207.5 52.5t-54.5 197.5v88h-178l59 133h119v117h-203l60 131h143v88q0 145 54.5 197.5t207.5 52.5h676q153 0 207.5 -52.5 t54.5 -197.5v-100l-223 -39v200h-756z" />
<glyph unicode="&#xa0;" />
<glyph unicode="&#xa1;" horiz-adv-x="786" d="M317 766h-34q-29 0 -40.5 14t-11.5 56v151q0 43 12.5 56.5t73.5 13.5h181q29 0 40 -14t11 -56v-151q0 -43 -12 -56.5t-74 -13.5h-146zM471 627l78 -627h-318l78 627h162z" />
<glyph unicode="&#xa2;" d="M678 166l131 381h-203v-381h72zM549 -207l72 207h-54q-85 0 -120 36.5t-35 131.5v377q0 96 40.5 130t155.5 34h256l58 168h110l-57 -168q123 0 159.5 -29.5t36.5 -122.5v-92l-180 -29v111h-71l-134 -381h205v139l180 -43v-133q0 -71 -36 -100t-129 -29h-275l-72 -207 h-110z" />
<glyph unicode="&#xa3;" d="M215 -25v211q124 11 176.5 61.5t52.5 160.5q0 6 -1.5 26.5t-2.5 30.5h-227v162h215q-4 33 -6 66.5t-2 68.5q0 155 77 225t251 70h358q137 0 208.5 -52.5t71.5 -152.5v-96l-206 -35v61q0 58 -31 81.5t-115 23.5h-233q-106 0 -141 -32.5t-35 -129.5q0 -26 2 -50.5t6 -47.5 h299v-162l-291 -1q-2 -63 -10.5 -114.5t-24.5 -95.5q130 -35 250.5 -53.5t224.5 -18.5q116 0 151.5 27t35.5 106v41l200 -37v-75q0 -129 -85.5 -194.5t-254.5 -65.5q-121 0 -275.5 26.5t-334.5 79.5q-68 -61 -135.5 -88t-149.5 -27h-18z" />
<glyph unicode="&#xa4;" d="M436 868v-149h471l-59 -131h-412v-117h361l-60 -133h-301v-148h756v236l223 -51v-125q0 -145 -54.5 -197.5t-207.5 -52.5h-676q-153 0 -207.5 52.5t-54.5 197.5v88h-178l59 133h119v117h-203l60 131h143v88q0 145 54.5 197.5t207.5 52.5h676q153 0 207.5 -52.5 t54.5 -197.5v-100l-223 -39v200h-756z" />
<glyph unicode="&#xa5;" d="M1167 1057h287l-276 -295h223v-133h-346l-148 -158h494v-133h-494v-338h-227v338h-496v133h496l-148 158h-348v133h224l-279 295h324l358 -416z" />
<glyph unicode="&#xa6;" horiz-adv-x="1024" d="M588 408v-758h-150v758h150zM588 1432v-758h-150v758h150z" />
<glyph unicode="&#xa7;" horiz-adv-x="1024" d="M156 -43l118 111q58 -57 118 -85t122 -28q58 0 94.5 26t36.5 66q0 63 -174 134q-19 7 -29 12q-184 76 -250.5 139.5t-66.5 152.5q0 83 54 137.5t151 69.5q-59 37 -87 81.5t-28 100.5q0 97 79.5 158.5t207.5 61.5q93 0 177 -31t150 -90l-118 -105q-52 48 -104.5 73.5 t-98.5 25.5q-56 0 -89.5 -24t-33.5 -62q0 -36 31 -62t147 -71q210 -83 276 -144.5t66 -148.5q0 -78 -56.5 -134t-156.5 -75q59 -29 93 -81.5t34 -115.5q0 -100 -86 -166.5t-217 -66.5q-97 0 -192.5 37.5t-167.5 103.5zM270 539q0 -35 29 -67t92 -66q71 -40 145.5 -63.5 t122.5 -23.5q47 0 75 22t28 56t-35 68.5t-109 73.5q-68 36 -140 57.5t-116 21.5q-41 0 -66.5 -22t-25.5 -57z" />
<glyph unicode="&#xa8;" horiz-adv-x="1024" d="M580 1026v229h204v-229h-204zM240 1026v229h204v-229h-204z" />
<glyph unicode="&#xa9;" horiz-adv-x="1706" d="M1053 907q-13 77 -66 118.5t-139 41.5q-105 0 -165 -90.5t-60 -249.5q0 -157 62 -244.5t173 -87.5q82 0 136.5 47t68.5 129h145q-9 -130 -107.5 -211t-248.5 -81q-182 0 -285.5 120t-103.5 334q0 200 109 322.5t286 122.5q142 0 236.5 -75t105.5 -196h-147zM1493 727 q0 130 -47.5 246.5t-136.5 206.5q-93 92 -209 140t-246 48q-129 0 -243.5 -47t-204.5 -137q-93 -93 -143 -211.5t-50 -245.5q0 -126 49 -242t141 -209q92 -91 207.5 -139.5t243.5 -48.5q125 0 242 49t213 142q90 88 137 202.5t47 245.5zM852 1464q152 0 285.5 -54.5 t238.5 -160.5q104 -103 159.5 -238.5t55.5 -283.5q0 -149 -54.5 -281.5t-158.5 -234.5q-110 -107 -245.5 -164t-280.5 -57t-278.5 56t-239.5 163q-106 105 -161.5 238.5t-55.5 279.5q0 147 56 281.5t163 242.5q104 104 236 158.5t280 54.5z" />
<glyph unicode="&#xaa;" horiz-adv-x="872" d="M41 422l338 520h135l344 -520h-156l-71 115h-379l-72 -115h-139zM311 631h262l-133 217z" />
<glyph unicode="&#xab;" horiz-adv-x="1151" d="M1024 131h-182l-242 303l242 301h182l-233 -301zM551 131h-182l-242 303l242 301h182l-234 -301z" />
<glyph unicode="&#xac;" horiz-adv-x="1706" d="M1452 860v-502h-137v363h-1061v139h1198z" />
<glyph unicode="&#xad;" horiz-adv-x="676" d="M98 440v211h477v-211h-477z" />
<glyph unicode="&#xae;" horiz-adv-x="1706" d="M844 1057h-129v-277h133q113 0 162 31.5t49 101.5q0 76 -51 110t-164 34zM872 1159q174 0 261.5 -57.5t87.5 -171.5q0 -89 -50 -148t-141 -77l187 -381h-177l-170 356h-155v-356h-158v835h315zM1493 721q0 134 -46.5 251t-135.5 206q-92 93 -208.5 141.5t-248.5 48.5 q-130 0 -245 -47t-201 -135q-94 -95 -144.5 -214t-50.5 -245q0 -125 48.5 -240.5t139.5 -207.5q90 -92 206.5 -141.5t240.5 -49.5q130 0 246.5 48t212.5 140q90 88 138 202.5t48 242.5zM852 1464q151 0 286 -56t240 -163q103 -104 158 -238t55 -280q0 -151 -55 -283.5 t-160 -234.5q-109 -106 -244.5 -162.5t-279.5 -56.5q-147 0 -280.5 56.5t-239.5 164.5q-105 106 -160 238.5t-55 277.5q0 146 57.5 282.5t165.5 245.5q101 103 231.5 156t280.5 53z" />
<glyph unicode="&#xaf;" horiz-adv-x="1024" d="M236 1067v147h552v-147h-552z" />
<glyph unicode="&#xb0;" horiz-adv-x="674" d="M530 1169q0 81 -55.5 137t-136.5 56t-138 -56t-57 -137t57 -138.5t138 -57.5t136.5 57.5t55.5 138.5zM338 1456q118 0 202.5 -84.5t84.5 -204.5q0 -119 -84 -202.5t-205 -83.5t-204 83t-83 203t84.5 204.5t204.5 84.5z" />
<glyph unicode="&#xb1;" horiz-adv-x="1706" d="M1452 170v-141h-1198v141h1198zM924 1192v-340h528v-139h-528v-340h-142v340h-528v139h528v340h142z" />
<glyph unicode="&#xb2;" horiz-adv-x="1044" d="M188 932q0 72 33 98.5t127 26.5h359q93 0 126 -26.5t33 -98.5v-41q0 -46 -15 -71t-75 -58l-409 -225h405v92l129 -33v-49q0 -72 -32.5 -98.5t-127.5 -26.5h-587v57q0 42 19 65.5t69 51.5l483 270v82h-397v-131l-140 33v82z" />
<glyph unicode="&#xb3;" horiz-adv-x="1044" d="M307 422q-94 0 -125.5 26t-31.5 99v51l143 27v-88h375q41 0 54 11t13 44v47q0 34 -13.5 45.5t-53.5 11.5h-236v105h211q39 0 52.5 11.5t13.5 45.5v33q0 34 -13.5 45.5t-52.5 11.5h-346v-80l-137 25v39q0 72 33 98.5t126 26.5h377q94 0 127 -26.5t33 -98.5v-58 q0 -56 -30 -83t-105 -37q84 -8 123 -39t39 -90v-66q0 -79 -37.5 -108t-132.5 -29h-406z" />
<glyph unicode="&#xb4;" horiz-adv-x="1024" d="M365 979l204 346h222l-295 -346h-131z" />
<glyph unicode="&#xb5;" horiz-adv-x="1151" d="M385 1071l-129 -600q-7 -32 -10.5 -64.5t-3.5 -68.5q0 -99 52 -153t148 -54q132 0 208.5 92.5t123.5 311.5l115 536h178l-156 -732q-1 -6 -4 -20q-18 -87 -18 -112q0 -37 16.5 -52.5t55.5 -15.5q12 0 18.5 0.5t13.5 1.5l-31 -143q-24 -5 -50 -7.5t-58 -2.5q-63 0 -97 29 t-52 100q-45 -66 -112.5 -98.5t-158.5 -32.5q-82 0 -143 27.5t-113 88.5l-110 -530h-181l318 1499h180z" />
<glyph unicode="&#xb6;" horiz-adv-x="1024" d="M958 1393h-120v-1393h-111v1393h-176v-1393h-113v782q-170 8 -271 102.5t-101 245.5q0 157 107.5 253t285.5 96h499v-86z" />
<glyph unicode="&#xb7;" horiz-adv-x="678" d="M172 528q0 71 47.5 118.5t118.5 47.5t119.5 -47.5t48.5 -118.5q0 -67 -50 -117.5t-118 -50.5q-67 0 -116.5 50t-49.5 118z" />
<glyph unicode="&#xb8;" horiz-adv-x="1024" d="M287 -434v119q82 -22 146.5 -32.5t109.5 -10.5q53 0 80.5 19t27.5 56q0 42 -34 61t-109 19q-6 0 -20 -1t-21 -1v205h90v-94h16q120 0 178 -47.5t58 -145.5q0 -91 -65 -140.5t-185 -49.5q-54 0 -124 11t-148 32z" />
<glyph unicode="&#xb9;" horiz-adv-x="1044" d="M477 422v514h-147v84l295 41v-639h-148z" />
<glyph unicode="&#xba;" horiz-adv-x="967" d="M252 522h461v324h-461v-324zM113 819q0 71 30.5 97t118.5 26h443q87 0 117 -25.5t30 -97.5v-274q0 -72 -30 -97.5t-117 -25.5h-443q-88 0 -118.5 26t-30.5 97v274z" />
<glyph unicode="&#xbb;" horiz-adv-x="1151" d="M602 735h180l242 -301l-242 -303h-180l232 303zM127 735h182l242 -301l-242 -303h-182l233 303z" />
<glyph unicode="&#xbc;" horiz-adv-x="2337" d="M1948 -6v137h-504v98l500 369h145v-369h162v-98h-162v-137h-141zM1948 229v265l-363 -265h363zM1679 1090l-891 -1123h-133l893 1123h131zM457 465v479h-142v80l283 37v-596h-141z" />
<glyph unicode="&#xbd;" horiz-adv-x="2337" d="M1520 475q0 67 31.5 92t121.5 25h340q91 0 122.5 -25t31.5 -92v-37q0 -42 -14 -65t-72 -56l-391 -211h387v89l123 -31v-47q0 -68 -32 -92.5t-122 -24.5h-559v53q0 41 18.5 62t65.5 47l461 252v78h-381v-123l-131 30v76zM1679 1090l-891 -1123h-133l893 1123h131zM457 465 v479h-142v80l283 37v-596h-141z" />
<glyph unicode="&#xbe;" horiz-adv-x="2337" d="M1948 -6v137h-504v98l500 369h145v-369h162v-98h-162v-137h-141zM1948 229v265l-363 -265h363zM1679 1090l-891 -1123h-133l893 1123h131zM295 465q-91 0 -122.5 24.5t-31.5 92.5v47l138 24v-82h358q39 0 52 11t13 43v43q0 31 -13 42t-52 11h-223v96h198q38 0 51 11 t13 44v29q0 33 -13 44t-51 11h-327v-73l-133 20v37q0 67 31.5 92t121.5 25h359q90 0 121.5 -25t31.5 -92v-53q0 -52 -28.5 -77t-100.5 -36q80 -6 117 -35.5t37 -85.5v-61q0 -73 -35 -100t-125 -27h-387z" />
<glyph unicode="&#xbf;" horiz-adv-x="1356" d="M784 629v-148l-354 -213v-92h473v131l205 -33v-57q0 -109 -55 -163t-166 -54h-418q-128 0 -190 49t-62 150v166l358 208v56h209zM610 766h-37q-27 0 -38 14t-11 56v151q0 43 12.5 56.5t73.5 13.5h181q29 0 40 -14t11 -56v-151q0 -43 -12.5 -56.5t-73.5 -13.5h-146z" />
<glyph unicode="&#xc0;" horiz-adv-x="1579" d="M541 422h463l-228 430zM68 0l598 1057h237l606 -1057h-276l-127 231h-670l-123 -231h-245zM938 1169h-131l-295 346h222z" />
<glyph unicode="&#xc1;" horiz-adv-x="1579" d="M541 422h463l-228 430zM68 0l598 1057h237l606 -1057h-276l-127 231h-670l-123 -231h-245zM644 1169l204 346h222l-295 -346h-131z" />
<glyph unicode="&#xc2;" horiz-adv-x="1579" d="M541 422h463l-228 430zM68 0l598 1057h237l606 -1057h-276l-127 231h-670l-123 -231h-245zM494 1167l188 348h218l188 -348h-131l-166 211l-168 -211h-129z" />
<glyph unicode="&#xc3;" horiz-adv-x="1579" d="M541 422h463l-228 430zM68 0l598 1057h237l606 -1057h-276l-127 231h-670l-123 -231h-245zM1092 1452q-23 -118 -71 -172t-128 -54q-15 0 -32.5 2.5t-37.5 8.5l-83 24q-21 6 -35.5 8t-28.5 2q-33 0 -54 -16.5t-32 -50.5h-100q20 110 67.5 164.5t124.5 54.5q19 0 40 -3.5 t44 -10.5l89 -25q12 -3 24.5 -4.5t26.5 -1.5q32 0 54.5 19t31.5 55h100z" />
<glyph unicode="&#xc4;" horiz-adv-x="1579" d="M541 422h463l-228 430zM68 0l598 1057h237l606 -1057h-276l-127 231h-670l-123 -231h-245zM859 1216v229h204v-229h-204zM519 1216v229h204v-229h-204z" />
<glyph unicode="&#xc5;" horiz-adv-x="1579" d="M657 1380q0 -53 37 -90t90 -37q54 0 90.5 37.5t36.5 89.5q0 54 -36.5 91.5t-90.5 37.5q-53 0 -90 -37.5t-37 -91.5zM526 1382q0 108 74.5 182t181.5 74q108 0 184 -74.5t76 -181.5q0 -108 -75.5 -183t-184.5 -75q-107 0 -181.5 75t-74.5 183zM541 422h463l-228 430zM68 0 l598 1057h237l606 -1057h-276l-127 231h-670l-123 -231h-245z" />
<glyph unicode="&#xc6;" horiz-adv-x="2189" d="M1073 455v442h-37l-364 -442h401zM2007 199v-199h-934v262h-543l-215 -262h-280l883 1057h1079v-180h-684v-236h489v-180h-489v-262h694z" />
<glyph unicode="&#xc7;" horiz-adv-x="1640" d="M1157 868h-663v-669h663v227l246 -51v-125q0 -145 -54.5 -197.5t-207.5 -52.5h-631q-154 0 -208 52.5t-54 197.5v557q0 144 54 197t208 53h631q153 0 207.5 -53t54.5 -197v-100l-246 -39v200zM596 -434v119q82 -22 146.5 -32.5t109.5 -10.5q53 0 80.5 19t27.5 56 q0 42 -34 61t-109 19q-6 0 -20 -1t-21 -1v205h90v-94h16q120 0 178 -47.5t58 -145.5q0 -91 -65 -140.5t-185 -49.5q-54 0 -124 11t-148 32z" />
<glyph unicode="&#xc8;" horiz-adv-x="1546" d="M270 0v1057h1082v-180h-836v-236h488v-180h-488v-262h846v-199h-1092zM964 1169h-131l-295 346h222z" />
<glyph unicode="&#xc9;" horiz-adv-x="1546" d="M270 0v1057h1082v-180h-836v-236h488v-180h-488v-262h846v-199h-1092zM670 1169l204 346h222l-295 -346h-131z" />
<glyph unicode="&#xca;" horiz-adv-x="1546" d="M270 0v1057h1082v-180h-836v-236h488v-180h-488v-262h846v-199h-1092zM520 1167l188 348h218l188 -348h-131l-166 211l-168 -211h-129z" />
<glyph unicode="&#xcb;" horiz-adv-x="1546" d="M270 0v1057h1082v-180h-836v-236h488v-180h-488v-262h846v-199h-1092zM885 1216v229h204v-229h-204zM545 1216v229h204v-229h-204z" />
<glyph unicode="&#xcc;" horiz-adv-x="786" d="M270 0v1057h246v-1057h-246zM540 1169h-131l-295 346h222z" />
<glyph unicode="&#xcd;" horiz-adv-x="786" d="M270 0v1057h246v-1057h-246zM246 1169l204 346h222l-295 -346h-131z" />
<glyph unicode="&#xce;" horiz-adv-x="786" d="M270 0v1057h246v-1057h-246zM96 1167l188 348h218l188 -348h-131l-166 211l-168 -211h-129z" />
<glyph unicode="&#xcf;" horiz-adv-x="786" d="M270 0v1057h246v-1057h-246zM461 1216v229h204v-229h-204zM121 1216v229h204v-229h-204z" />
<glyph unicode="&#xd0;" horiz-adv-x="1735" d="M516 199h318q254 0 360 79t106 261q0 162 -88 245.5t-260 83.5h-436v-217h393v-194h-393v-258zM270 0v457h-196v194h196v406h680q291 0 447.5 -136t156.5 -386q0 -148 -61 -266.5t-172 -186.5q-69 -43 -171.5 -62.5t-262.5 -19.5h-617z" />
<glyph unicode="&#xd1;" horiz-adv-x="1780" d="M268 0v1057h168l744 -623q38 -31 67 -58.5t53 -56.5q-6 89 -8 126t-2 57v555h221v-1057h-168l-776 653l-49 45q-21 20 -39 41q5 -49 7.5 -92.5t2.5 -75.5v-571h-221zM1192 1452q-23 -118 -71 -172t-128 -54q-15 0 -32.5 2.5t-37.5 8.5l-83 24q-21 6 -35.5 8t-28.5 2 q-33 0 -54 -16.5t-32 -50.5h-100q20 110 67.5 164.5t124.5 54.5q19 0 40 -3.5t44 -10.5l89 -25q12 -3 24.5 -4.5t26.5 -1.5q32 0 54.5 19t31.5 55h100z" />
<glyph unicode="&#xd2;" horiz-adv-x="1798" d="M248 807q0 144 54 197t208 53h778q154 0 208 -53t54 -197v-557q0 -145 -54 -197.5t-208 -52.5h-778q-154 0 -208 52.5t-54 197.5v557zM494 199h811v669h-811v-669zM1046 1169h-131l-295 346h222z" />
<glyph unicode="&#xd3;" horiz-adv-x="1798" d="M248 807q0 144 54 197t208 53h778q154 0 208 -53t54 -197v-557q0 -145 -54 -197.5t-208 -52.5h-778q-154 0 -208 52.5t-54 197.5v557zM494 199h811v669h-811v-669zM752 1169l204 346h222l-295 -346h-131z" />
<glyph unicode="&#xd4;" horiz-adv-x="1798" d="M248 807q0 144 54 197t208 53h778q154 0 208 -53t54 -197v-557q0 -145 -54 -197.5t-208 -52.5h-778q-154 0 -208 52.5t-54 197.5v557zM494 199h811v669h-811v-669zM602 1167l188 348h218l188 -348h-131l-166 211l-168 -211h-129z" />
<glyph unicode="&#xd5;" horiz-adv-x="1798" d="M248 807q0 144 54 197t208 53h778q154 0 208 -53t54 -197v-557q0 -145 -54 -197.5t-208 -52.5h-778q-154 0 -208 52.5t-54 197.5v557zM494 199h811v669h-811v-669zM1200 1452q-23 -118 -71 -172t-128 -54q-15 0 -32.5 2.5t-37.5 8.5l-83 24q-21 6 -35.5 8t-28.5 2 q-33 0 -54 -16.5t-32 -50.5h-100q20 110 67.5 164.5t124.5 54.5q19 0 40 -3.5t44 -10.5l89 -25q12 -3 24.5 -4.5t26.5 -1.5q32 0 54.5 19t31.5 55h100z" />
<glyph unicode="&#xd6;" horiz-adv-x="1798" d="M248 807q0 144 54 197t208 53h778q154 0 208 -53t54 -197v-557q0 -145 -54 -197.5t-208 -52.5h-778q-154 0 -208 52.5t-54 197.5v557zM494 199h811v669h-811v-669zM967 1216v229h204v-229h-204zM627 1216v229h204v-229h-204z" />
<glyph unicode="&#xd7;" horiz-adv-x="1706" d="M860 709l469 469l98 -99l-469 -469l469 -469l-98 -96l-469 467l-469 -467l-98 96l469 469l-469 469l98 99z" />
<glyph unicode="&#xd8;" horiz-adv-x="1798" d="M494 199h98l465 669h-563v-669zM248 807q0 144 54 197t208 53h653l189 262h202l-186 -264q100 -9 141 -64t41 -184v-557q0 -145 -54 -197.5t-208 -52.5h-657l-185 -262h-202l184 266q-97 7 -138.5 62.5t-41.5 183.5v557zM1305 868h-97l-467 -669h564v669z" />
<glyph unicode="&#xd9;" horiz-adv-x="1733" d="M516 1057v-858h701v858h245v-807q0 -145 -54 -197.5t-208 -52.5h-668q-153 0 -207.5 52.5t-54.5 197.5v807h246zM1013 1169h-131l-295 346h222z" />
<glyph unicode="&#xda;" horiz-adv-x="1733" d="M516 1057v-858h701v858h245v-807q0 -145 -54 -197.5t-208 -52.5h-668q-153 0 -207.5 52.5t-54.5 197.5v807h246zM719 1169l204 346h222l-295 -346h-131z" />
<glyph unicode="&#xdb;" horiz-adv-x="1733" d="M516 1057v-858h701v858h245v-807q0 -145 -54 -197.5t-208 -52.5h-668q-153 0 -207.5 52.5t-54.5 197.5v807h246zM569 1167l188 348h218l188 -348h-131l-166 211l-168 -211h-129z" />
<glyph unicode="&#xdc;" horiz-adv-x="1733" d="M516 1057v-858h701v858h245v-807q0 -145 -54 -197.5t-208 -52.5h-668q-153 0 -207.5 52.5t-54.5 197.5v807h246zM934 1216v229h204v-229h-204zM594 1216v229h204v-229h-204z" />
<glyph unicode="&#xdd;" horiz-adv-x="1376" d="M565 0v473l-549 584h328l363 -406l364 406h289l-547 -578v-479h-248zM541 1169l204 346h222l-295 -346h-131z" />
<glyph unicode="&#xde;" horiz-adv-x="1522" d="M512 688v-280h553q64 0 87.5 18.5t23.5 65.5v112q0 47 -23.5 65.5t-87.5 18.5h-553zM270 1057h242v-187h662q126 0 182.5 -48.5t56.5 -155.5v-236q0 -107 -56.5 -156t-182.5 -49h-662v-225h-242v1057z" />
<glyph unicode="&#xdf;" horiz-adv-x="2716" d="M993 711h-596v-183h564q133 0 179 -42.5t46 -161.5v-119q0 -119 -47 -162t-178 -43h-562q-134 0 -181.5 43t-47.5 162v24l188 35v-102h637v198h-561q-133 0 -180 43.5t-47 161.5v97q0 117 47 160.5t180 43.5h514q131 0 179.5 -41.5t48.5 -146.5v-21l-183 -39v93z M2351 711h-596v-183h564q133 0 179 -42.5t46 -161.5v-119q0 -119 -47 -162t-178 -43h-562q-134 0 -181.5 43t-47.5 162v24l188 35v-102h637v198h-561q-133 0 -180 43.5t-47 161.5v97q0 117 47 160.5t180 43.5h514q131 0 179.5 -41.5t48.5 -146.5v-21l-183 -39v93z" />
<glyph unicode="&#xe0;" horiz-adv-x="1323" d="M61 0l514 866h203l522 -866h-237l-109 190h-573l-109 -190h-211zM471 348h397l-202 361zM809 979h-131l-295 346h222z" />
<glyph unicode="&#xe1;" horiz-adv-x="1323" d="M61 0l514 866h203l522 -866h-237l-109 190h-573l-109 -190h-211zM471 348h397l-202 361zM515 979l204 346h222l-295 -346h-131z" />
<glyph unicode="&#xe2;" horiz-adv-x="1323" d="M61 0l514 866h203l522 -866h-237l-109 190h-573l-109 -190h-211zM471 348h397l-202 361zM365 977l188 348h218l188 -348h-131l-166 211l-168 -211h-129z" />
<glyph unicode="&#xe3;" horiz-adv-x="1323" d="M61 0l514 866h203l522 -866h-237l-109 190h-573l-109 -190h-211zM471 348h397l-202 361zM963 1262q-23 -118 -71 -172t-128 -54q-15 0 -32.5 2.5t-37.5 8.5l-83 24q-21 6 -35.5 8t-28.5 2q-33 0 -54 -16.5t-32 -50.5h-100q20 110 67.5 164.5t124.5 54.5q19 0 40 -3.5 t44 -10.5l89 -25q12 -3 24.5 -4.5t26.5 -1.5q32 0 54.5 19t31.5 55h100z" />
<glyph unicode="&#xe4;" horiz-adv-x="1323" d="M61 0l514 866h203l522 -866h-237l-109 190h-573l-109 -190h-211zM471 348h397l-202 361zM730 1026v229h204v-229h-204zM390 1026v229h204v-229h-204z" />
<glyph unicode="&#xe5;" horiz-adv-x="1323" d="M61 0l514 866h203l522 -866h-237l-109 190h-573l-109 -190h-211zM471 348h397l-202 361zM535 1217q0 -54 37.5 -92t91.5 -38q53 0 90 38t37 92q0 53 -36.5 89.5t-90.5 36.5t-91.5 -36.5t-37.5 -89.5zM406 1217q0 107 74.5 182.5t181.5 75.5q108 0 183 -75.5t75 -182.5 q0 -109 -75 -184t-183 -75t-182 75t-74 184z" />
<glyph unicode="&#xe6;" horiz-adv-x="1839" d="M1726 164v-164h-796v215h-473l-187 -215h-239l760 866h927v-153h-588v-189h420v-149h-420v-211h596zM930 373v362h-39l-316 -362h355z" />
<glyph unicode="&#xe7;" horiz-adv-x="1319" d="M952 707h-569v-541h569v184l213 -43v-102q0 -118 -47 -161.5t-180 -43.5h-541q-131 0 -178 43t-47 162v457q0 118 46.5 161t178.5 43h541q134 0 180.5 -43t46.5 -161v-84l-213 -31v160zM441 -434v119q82 -22 146.5 -32.5t109.5 -10.5q53 0 80.5 19t27.5 56q0 42 -34 61 t-109 19q-6 0 -20 -1t-21 -1v205h90v-94h16q120 0 178 -47.5t58 -145.5q0 -91 -65 -140.5t-185 -49.5q-54 0 -124 11t-148 32z" />
<glyph unicode="&#xe8;" horiz-adv-x="1245" d="M193 0v866h929v-153h-716v-189h417v-149h-417v-213h727v-162h-940zM802 979h-131l-295 346h222z" />
<glyph unicode="&#xe9;" horiz-adv-x="1245" d="M193 0v866h929v-153h-716v-189h417v-149h-417v-213h727v-162h-940zM508 979l204 346h222l-295 -346h-131z" />
<glyph unicode="&#xea;" horiz-adv-x="1245" d="M193 0v866h929v-153h-716v-189h417v-149h-417v-213h727v-162h-940zM358 977l188 348h218l188 -348h-131l-166 211l-168 -211h-129z" />
<glyph unicode="&#xeb;" horiz-adv-x="1245" d="M193 0v866h929v-153h-716v-189h417v-149h-417v-213h727v-162h-940zM723 1026v229h204v-229h-204zM383 1026v229h204v-229h-204z" />
<glyph unicode="&#xec;" horiz-adv-x="596" d="M193 0v866h210v-866h-210zM446 979h-131l-295 346h222z" />
<glyph unicode="&#xed;" horiz-adv-x="596" d="M193 0v866h210v-866h-210zM152 979l204 346h222l-295 -346h-131z" />
<glyph unicode="&#xee;" horiz-adv-x="596" d="M193 0v866h210v-866h-210zM2 977l188 348h218l188 -348h-131l-166 211l-168 -211h-129z" />
<glyph unicode="&#xef;" horiz-adv-x="596" d="M193 0v866h210v-866h-210zM367 1026v229h204v-229h-204zM27 1026v229h204v-229h-204z" />
<glyph unicode="&#xf0;" horiz-adv-x="1421" d="M193 0v365h-168v159h168v342h583q251 0 385.5 -111.5t134.5 -318.5q0 -218 -142.5 -327t-430.5 -109h-530zM406 162h272q223 0 312 65t89 219q0 134 -74 199.5t-227 65.5h-372v-187h339v-159h-339v-203z" />
<glyph unicode="&#xf1;" horiz-adv-x="1458" d="M193 0v866h145l735 -575v575h191v-866h-146l-733 584v-584h-192zM1030 1262q-23 -118 -71 -172t-128 -54q-15 0 -32.5 2.5t-37.5 8.5l-83 24q-21 6 -35.5 8t-28.5 2q-33 0 -54 -16.5t-32 -50.5h-100q20 110 67.5 164.5t124.5 54.5q19 0 40 -3.5t44 -10.5l89 -25 q12 -3 24.5 -4.5t26.5 -1.5q32 0 54.5 19t31.5 55h100z" />
<glyph unicode="&#xf2;" horiz-adv-x="1464" d="M383 166h698v541h-698v-541zM172 662q0 118 46 161t179 43h670q134 0 179.5 -43t45.5 -161v-457q0 -119 -46.5 -162t-178.5 -43h-670q-133 0 -179 43t-46 162v457zM880 979h-131l-295 346h222z" />
<glyph unicode="&#xf3;" horiz-adv-x="1464" d="M383 166h698v541h-698v-541zM172 662q0 118 46 161t179 43h670q134 0 179.5 -43t45.5 -161v-457q0 -119 -46.5 -162t-178.5 -43h-670q-133 0 -179 43t-46 162v457zM586 979l204 346h222l-295 -346h-131z" />
<glyph unicode="&#xf4;" horiz-adv-x="1464" d="M383 166h698v541h-698v-541zM172 662q0 118 46 161t179 43h670q134 0 179.5 -43t45.5 -161v-457q0 -119 -46.5 -162t-178.5 -43h-670q-133 0 -179 43t-46 162v457zM436 977l188 348h218l188 -348h-131l-166 211l-168 -211h-129z" />
<glyph unicode="&#xf5;" horiz-adv-x="1464" d="M383 166h698v541h-698v-541zM172 662q0 118 46 161t179 43h670q134 0 179.5 -43t45.5 -161v-457q0 -119 -46.5 -162t-178.5 -43h-670q-133 0 -179 43t-46 162v457zM1034 1262q-23 -118 -71 -172t-128 -54q-15 0 -32.5 2.5t-37.5 8.5l-83 24q-21 6 -35.5 8t-28.5 2 q-33 0 -54 -16.5t-32 -50.5h-100q20 110 67.5 164.5t124.5 54.5q19 0 40 -3.5t44 -10.5l89 -25q12 -3 24.5 -4.5t26.5 -1.5q32 0 54.5 19t31.5 55h100z" />
<glyph unicode="&#xf6;" horiz-adv-x="1464" d="M383 166h698v541h-698v-541zM172 662q0 118 46 161t179 43h670q134 0 179.5 -43t45.5 -161v-457q0 -119 -46.5 -162t-178.5 -43h-670q-133 0 -179 43t-46 162v457zM801 1026v229h204v-229h-204zM461 1026v229h204v-229h-204z" />
<glyph unicode="&#xf7;" horiz-adv-x="1706" d="M854 367q51 0 88 -37t37 -88q0 -52 -36.5 -88.5t-88.5 -36.5q-53 0 -89 36t-36 89q0 51 37 88t88 37zM1452 680v-139h-1198v139h1198zM854 1106q51 0 88 -37.5t37 -89.5q0 -51 -36.5 -88t-88.5 -37t-88.5 36.5t-36.5 88.5t37 89.5t88 37.5z" />
<glyph unicode="&#xf8;" horiz-adv-x="1464" d="M1083 707h-90l-391 -541h481v541zM176 662q0 118 46.5 161t178.5 43h562l161 215h174l-159 -217q86 -7 121.5 -52t35.5 -150v-457q0 -119 -47 -162t-178 -43h-565l-158 -215h-176l160 219q-85 6 -120.5 51.5t-35.5 149.5v457zM383 166h92l391 541h-483v-541z" />
<glyph unicode="&#xf9;" horiz-adv-x="1411" d="M403 866v-704h603v704h213v-661q0 -118 -47.5 -161.5t-180.5 -43.5h-573q-132 0 -178.5 43t-46.5 162v661h210zM854 979h-131l-295 346h222z" />
<glyph unicode="&#xfa;" horiz-adv-x="1411" d="M403 866v-704h603v704h213v-661q0 -118 -47.5 -161.5t-180.5 -43.5h-573q-132 0 -178.5 43t-46.5 162v661h210zM560 979l204 346h222l-295 -346h-131z" />
<glyph unicode="&#xfb;" horiz-adv-x="1411" d="M403 866v-704h603v704h213v-661q0 -118 -47.5 -161.5t-180.5 -43.5h-573q-132 0 -178.5 43t-46.5 162v661h210zM410 977l188 348h218l188 -348h-131l-166 211l-168 -211h-129z" />
<glyph unicode="&#xfc;" horiz-adv-x="1411" d="M403 866v-704h603v704h213v-661q0 -118 -47.5 -161.5t-180.5 -43.5h-573q-132 0 -178.5 43t-46.5 162v661h210zM775 1026v229h204v-229h-204zM435 1026v229h204v-229h-204z" />
<glyph unicode="&#xfd;" horiz-adv-x="1214" d="M520 0v389l-473 477h285l309 -323l313 323h248l-471 -473v-393h-211zM461 979l204 346h222l-295 -346h-131z" />
<glyph unicode="&#xfe;" horiz-adv-x="1286" d="M979 498q0 38 -20.5 53.5t-75.5 15.5h-482v-229h482q58 0 77 15t19 53v92zM193 866h208v-149h572q108 0 155.5 -39.5t47.5 -128.5v-195q0 -88 -47.5 -127t-155.5 -39h-572v-188h-208v866z" />
<glyph unicode="&#xff;" horiz-adv-x="1214" d="M520 0v389l-473 477h285l309 -323l313 323h248l-471 -473v-393h-211zM676 1026v229h204v-229h-204zM336 1026v229h204v-229h-204z" />
<glyph unicode="&#x152;" horiz-adv-x="2263" d="M248 807q0 144 54 197t208 53h1561v-180h-682v-236h487v-180h-487v-262h692v-199h-1571q-154 0 -208 52.5t-54 197.5v557zM494 199h655v678h-655v-678z" />
<glyph unicode="&#x153;" horiz-adv-x="1858" d="M383 166h565v541h-565v-541zM172 662q0 119 46 161.5t179 42.5h1344v-153h-588v-189h420v-149h-420v-211h596v-164h-1352q-132 0 -178.5 42.5t-46.5 162.5v457z" />
<glyph unicode="&#x178;" horiz-adv-x="1376" d="M565 0v473l-549 584h328l363 -406l364 406h289l-547 -578v-479h-248zM756 1216v229h204v-229h-204zM416 1216v229h204v-229h-204z" />
<glyph unicode="&#x2c6;" horiz-adv-x="1024" d="M215 977l188 348h218l188 -348h-131l-166 211l-168 -211h-129z" />
<glyph unicode="&#x2da;" horiz-adv-x="1024" d="M385 1217q0 -54 37.5 -92t91.5 -38q53 0 90 38t37 92q0 53 -36.5 89.5t-90.5 36.5t-91.5 -36.5t-37.5 -89.5zM256 1217q0 107 74.5 182.5t181.5 75.5q108 0 183 -75.5t75 -182.5q0 -109 -75 -184t-183 -75t-182 75t-74 184z" />
<glyph unicode="&#x2dc;" horiz-adv-x="1024" d="M813 1262q-23 -118 -71 -172t-128 -54q-15 0 -32.5 2.5t-37.5 8.5l-83 24q-21 6 -35.5 8t-28.5 2q-33 0 -54 -16.5t-32 -50.5h-100q20 110 67.5 164.5t124.5 54.5q19 0 40 -3.5t44 -10.5l89 -25q12 -3 24.5 -4.5t26.5 -1.5q32 0 54.5 19t31.5 55h100z" />
<glyph unicode="&#x2000;" horiz-adv-x="819" />
<glyph unicode="&#x2001;" horiz-adv-x="1638" />
<glyph unicode="&#x2002;" horiz-adv-x="819" />
<glyph unicode="&#x2003;" horiz-adv-x="1638" />
<glyph unicode="&#x2004;" horiz-adv-x="546" />
<glyph unicode="&#x2005;" horiz-adv-x="409" />
<glyph unicode="&#x2006;" horiz-adv-x="273" />
<glyph unicode="&#x2007;" horiz-adv-x="273" />
<glyph unicode="&#x2008;" horiz-adv-x="204" />
<glyph unicode="&#x2009;" horiz-adv-x="327" />
<glyph unicode="&#x200a;" horiz-adv-x="91" />
<glyph unicode="&#x2010;" horiz-adv-x="676" d="M98 440v211h477v-211h-477z" />
<glyph unicode="&#x2011;" horiz-adv-x="676" d="M98 440v211h477v-211h-477z" />
<glyph unicode="&#x2012;" horiz-adv-x="676" d="M98 440v211h477v-211h-477z" />
<glyph unicode="&#x2013;" horiz-adv-x="1024" d="M0 473v143h1024v-143h-1024z" />
<glyph unicode="&#x2014;" horiz-adv-x="2048" d="M0 616h2048v-143h-2048v143z" />
<glyph unicode="&#x2018;" horiz-adv-x="678" d="M266 467h-35q-27 0 -38 16t-11 60v211l203 303h121l-174 -312h117q27 0 38 -15.5t11 -59.5v-127q0 -48 -11.5 -62t-72.5 -14h-148z" />
<glyph unicode="&#x2019;" horiz-adv-x="678" d="M412 1057h34q28 0 39 -16t11 -60v-211l-203 -303h-121l174 311h-117q-27 0 -38 16t-11 60v127q0 48 11.5 62t72.5 14h148z" />
<glyph unicode="&#x201a;" horiz-adv-x="678" d="M412 317h34q28 0 39 -15.5t11 -59.5v-211l-203 -303h-121l174 311h-117q-27 0 -38 16t-11 60v127q0 48 11.5 61.5t72.5 13.5h148z" />
<glyph unicode="&#x201c;" horiz-adv-x="1186" d="M774 467h-35q-28 0 -39.5 16.5t-11.5 59.5v211l203 303h123l-174 -312h116q28 0 39 -15.5t11 -59.5v-127q0 -48 -12 -62t-74 -14h-146zM266 467h-35q-27 0 -38 16t-11 60v211l203 303h121l-174 -312h117q27 0 38 -15.5t11 -59.5v-127q0 -48 -11.5 -62t-72.5 -14h-148z " />
<glyph unicode="&#x201d;" horiz-adv-x="1186" d="M918 1057h36q28 0 39 -16t11 -60v-211l-203 -303h-123l174 311h-115q-28 0 -39.5 16.5t-11.5 59.5v127q0 47 12 61.5t74 14.5h146zM412 1057h34q28 0 39 -16t11 -60v-211l-203 -303h-121l174 311h-117q-27 0 -38 16t-11 60v127q0 48 11.5 62t72.5 14h148z" />
<glyph unicode="&#x201e;" horiz-adv-x="1186" d="M918 317h36q28 0 39 -15.5t11 -59.5v-211l-203 -303h-123l174 311h-115q-28 0 -39.5 16.5t-11.5 59.5v127q0 47 12 61t74 14h146zM412 317h34q28 0 39 -15.5t11 -59.5v-211l-203 -303h-121l174 311h-117q-27 0 -38 16t-11 60v127q0 48 11.5 61.5t72.5 13.5h148z" />
<glyph unicode="&#x2022;" horiz-adv-x="1208" d="M307 762q0 123 87 209t210 86q122 0 208.5 -86.5t86.5 -208.5t-87.5 -209.5t-209.5 -87.5q-123 0 -209 87t-86 210z" />
<glyph unicode="&#x2026;" horiz-adv-x="2048" d="M414 317h37q27 0 38 -15.5t11 -59.5v-166q0 -48 -12 -62t-74 -14h-183q-27 0 -38 16t-11 60v166q0 47 12 61t74 14h146zM1096 317h37q27 0 38 -15.5t11 -59.5v-166q0 -48 -12 -62t-74 -14h-183q-27 0 -38 16t-11 60v166q0 47 12 61t74 14h146zM1780 317h37q27 0 38 -15.5 t11 -59.5v-166q0 -48 -12 -62t-74 -14h-183q-27 0 -38 16t-11 60v166q0 47 12 61t74 14h146z" />
<glyph unicode="&#x202f;" horiz-adv-x="327" />
<glyph unicode="&#x2039;" horiz-adv-x="678" d="M551 131h-182l-242 303l242 301h182l-234 -301z" />
<glyph unicode="&#x203a;" horiz-adv-x="678" d="M127 735h182l242 -301l-242 -303h-182l233 303z" />
<glyph unicode="&#x205f;" horiz-adv-x="409" />
<glyph unicode="&#x2122;" horiz-adv-x="1706" d="M963 1458l151 -385l141 385h150v-538h-98v444l-166 -444h-56l-174 444v-444h-98v538h150zM694 1458v-80h-172v-458h-108v458h-172v80h452z" />
<glyph unicode="&#xe000;" horiz-adv-x="865" d="M0 865h865v-865h-865v865z" />
<glyph unicode="&#xfb01;" horiz-adv-x="1722" d="M1319 0v866h210v-866h-210zM193 0v866h919v-155h-706v-226h380v-161h-380v-324h-213z" />
<glyph unicode="&#xfb02;" horiz-adv-x="2256" d="M1319 0v866h213v-704h679v-162h-892zM193 0v866h919v-155h-706v-226h380v-161h-380v-324h-213z" />
<glyph unicode="&#xfb03;" horiz-adv-x="2848" d="M2445 0v866h210v-866h-210zM1319 0v866h919v-155h-706v-226h380v-161h-380v-324h-213zM193 0v866h919v-155h-706v-226h380v-161h-380v-324h-213z" />
<glyph unicode="&#xfb04;" horiz-adv-x="3382" d="M2445 0v866h213v-704h679v-162h-892zM1319 0v866h919v-155h-706v-226h380v-161h-380v-324h-213zM193 0v866h919v-155h-706v-226h380v-161h-380v-324h-213z" />
</font>
</defs>
</svg>
